<svg width="397" height="362" viewBox="0 0 397 362" fill="none" xmlns="http://www.w3.org/2000/svg">
<rect x="135.962" y="297.399" width="90" height="90" rx="12" transform="rotate(-45 135.962 297.399)" fill="#FDE8EE"/>
<rect x="69.2964" y="230.224" width="90" height="90" rx="12" transform="rotate(-45 69.2964 230.224)" fill="#7CF4D2"/>
<rect x="135.765" y="163.756" width="90" height="90" rx="12" transform="rotate(-45 135.765 163.756)" fill="black" fill-opacity="0.05"/>
<rect x="269.408" y="164.463" width="90" height="90" rx="12" transform="rotate(-45 269.408 164.463)" fill="black" fill-opacity="0.05"/>
<rect x="2.12128" y="163.049" width="90" height="90" rx="12" transform="rotate(-45 2.12128 163.049)" fill="#FDE8EE"/>
<rect x="37" y="63.6396" width="90" height="90" rx="12" transform="rotate(-45 37 63.6396)" fill="#7CF4D2"/>
<rect x="235.467" y="64.054" width="90" height="90" rx="12" transform="rotate(-45 235.467 64.054)" fill="black"/>
<rect x="202.94" y="230.931" width="42.8571" height="42.8571" rx="12" transform="rotate(-45 202.94 230.931)" fill="#7CF4D2"/>
<rect x="102.761" y="129.401" width="42.8571" height="42.8571" rx="12" transform="rotate(-45 102.761 129.401)" fill="black"/>
<rect x="236.881" y="264.872" width="42.8571" height="42.8571" rx="12" transform="rotate(-45 236.881 264.872)" fill="black" fill-opacity="0.05"/>
<rect x="236.174" y="197.697" width="42.8571" height="42.8571" rx="12" transform="rotate(-45 236.174 197.697)" fill="black"/>
<rect x="166.877" y="61.9326" width="43" height="139" rx="12" transform="rotate(-45 166.877 61.9326)" fill="#7CF4D2"/>
<rect x="135.995" y="96.1666" width="42.8571" height="42.8571" rx="12" transform="rotate(-45 135.995 96.1666)" fill="#FDE8EE"/>
<rect x="270.115" y="231.638" width="42.8571" height="42.8571" rx="12" transform="rotate(-45 270.115 231.638)" fill="#7CF4D2"/>
<rect y="97.288" width="42.8571" height="42.8571" rx="12" transform="rotate(-45 0 97.288)" fill="#7CF4D2"/>
<rect x="335.169" y="97.288" width="42.8571" height="42.8571" rx="12" transform="rotate(-45 335.169 97.288)" fill="#FDE8EE"/>
</svg>
