<svg width="165" height="54" viewBox="0 0 165 54" fill="none" xmlns="http://www.w3.org/2000/svg">
<path d="M137.996 35.1347L129.524 26.6629C128.849 25.9871 128.398 25.2015 128.173 24.306C127.953 23.4104 127.956 22.5204 128.181 21.6359C128.406 20.7458 128.854 19.9712 129.524 19.3119C130.211 18.6361 130.994 18.1884 131.873 17.9686C132.758 17.7434 133.639 17.7434 134.518 17.9686C135.403 18.1939 136.189 18.6416 136.875 19.3119L137.996 20.3997L139.117 19.3119C139.809 18.6416 140.595 18.1939 141.474 17.9686C142.353 17.7434 143.232 17.7434 144.111 17.9686C144.996 18.1884 145.781 18.6361 146.468 19.3119C147.138 19.9712 147.586 20.7458 147.811 21.6359C148.036 22.5204 148.036 23.4104 147.811 24.306C147.591 25.2015 147.144 25.9871 146.468 26.6629L137.996 35.1347Z" fill="#FF0000"/>
<rect x="112.736" y="1.4779" width="50.7861" height="50.7861" rx="12.4461" stroke="white" stroke-width="2.95581"/>
<path d="M16.9316 27.2486C16.9316 25.6551 17.2875 24.2317 17.9991 22.9786C18.7263 21.7099 19.7087 20.7275 20.9464 20.0313C22.1996 19.3196 23.5997 18.9638 25.1468 18.9638C26.9569 18.9638 28.5427 19.4279 29.9042 20.3562C31.2657 21.2845 32.2171 22.5686 32.7586 24.2085H29.0223C28.651 23.435 28.125 22.8548 27.4443 22.468C26.779 22.0812 26.0055 21.8878 25.1236 21.8878C24.1799 21.8878 23.3367 22.1122 22.5941 22.5608C21.8669 22.994 21.2945 23.6129 20.8768 24.4174C20.4745 25.2219 20.2734 26.1656 20.2734 27.2486C20.2734 28.3161 20.4745 29.2599 20.8768 30.0798C21.2945 30.8843 21.8669 31.5109 22.5941 31.9596C23.3367 32.3928 24.1799 32.6094 25.1236 32.6094C26.0055 32.6094 26.779 32.416 27.4443 32.0292C28.125 31.6269 28.651 31.039 29.0223 30.2655H32.7586C32.2171 31.9209 31.2657 33.2127 29.9042 34.141C28.5582 35.0538 26.9724 35.5102 25.1468 35.5102C23.5997 35.5102 22.1996 35.1621 20.9464 34.4659C19.7087 33.7542 18.7263 32.7718 17.9991 31.5187C17.2875 30.2655 16.9316 28.8421 16.9316 27.2486ZM39.3163 25.1832V31.4026C39.3163 31.8358 39.4169 32.153 39.618 32.3541C39.8346 32.5397 40.1905 32.6326 40.6855 32.6326H42.194V35.371H40.1518C37.4134 35.371 36.0442 34.0405 36.0442 31.3794V25.1832H34.5126V22.5144H36.0442V19.3351H39.3163V22.5144H42.194V25.1832H39.3163ZM47.7797 24.5102C48.1975 23.8295 48.739 23.2957 49.4042 22.9089C50.0849 22.5222 50.8585 22.3288 51.7249 22.3288V25.7402H50.8662C49.8451 25.7402 49.0716 25.98 48.5456 26.4596C48.035 26.9392 47.7797 27.7746 47.7797 28.9659V35.371H44.5308V22.5144H47.7797V24.5102ZM57.1622 18.198V35.371H53.9132V18.198H57.1622Z" fill="white"/>
<rect x="1.4779" y="1.4779" width="72.2829" height="50.7861" rx="12.4461" stroke="white" stroke-width="2.95581"/>
<path d="M99.469 30.7574H95.0829V35.2595H92.0196V30.7574H87.6335V27.9262H92.0196V23.4241H95.0829V27.9262H99.469V30.7574Z" fill="white"/>
</svg>
