<svg width="132" height="54" viewBox="0 0 132 54" fill="none" xmlns="http://www.w3.org/2000/svg">
<path d="M1.08 27.22C1.08 24.7 1.584 22.456 2.592 20.488C3.624 18.52 5.088 16.996 6.984 15.916C8.88 14.812 11.112 14.26 13.68 14.26C15.888 14.26 17.856 14.68 19.584 15.52C21.336 16.336 22.752 17.5 23.832 19.012C24.936 20.524 25.668 22.288 26.028 24.304H17.604C17.22 23.464 16.668 22.816 15.948 22.36C15.252 21.88 14.448 21.64 13.536 21.64C12.192 21.64 11.124 22.144 10.332 23.152C9.564 24.16 9.18 25.516 9.18 27.22C9.18 28.924 9.564 30.28 10.332 31.288C11.124 32.296 12.192 32.8 13.536 32.8C14.448 32.8 15.252 32.572 15.948 32.116C16.668 31.636 17.22 30.976 17.604 30.136H26.028C25.668 32.152 24.936 33.916 23.832 35.428C22.752 36.94 21.336 38.116 19.584 38.956C17.856 39.772 15.888 40.18 13.68 40.18C11.112 40.18 8.88 39.64 6.984 38.56C5.088 37.456 3.624 35.92 2.592 33.952C1.584 31.984 1.08 29.74 1.08 27.22ZM41.5415 33.196V40H38.5175C32.9495 40 30.1655 37.228 30.1655 31.684V26.356H27.6455V19.696H30.1655V14.8H38.1575V19.696H41.4695V26.356H38.1575V31.828C38.1575 32.308 38.2655 32.656 38.4815 32.872C38.7215 33.088 39.1055 33.196 39.6335 33.196H41.5415ZM52.5772 23.44C53.3932 22.264 54.3892 21.328 55.5652 20.632C56.7412 19.912 57.9652 19.552 59.2372 19.552V28.084H56.9692C55.4572 28.084 54.3412 28.348 53.6212 28.876C52.9252 29.404 52.5772 30.34 52.5772 31.684V40H44.5852V19.696H52.5772V23.44ZM69.3818 13.36V40H61.3898V13.36H69.3818Z" fill="black"/>
<path d="M87.3363 33.5621L82.8179 29.0437L78.2358 33.6257L76.4327 31.8226L81.0147 27.2406L76.5175 22.7434L78.151 21.1099L82.6482 25.6071L87.2514 21.0039L89.0545 22.807L84.4513 27.4103L88.9697 31.9287L87.3363 33.5621Z" fill="black"/>
<path d="M118.776 13.5C125.707 13.5 128.002 21.5156 125.581 25.8988C121.866 32.7041 110.511 39.9262 110.511 39.9262C110.511 39.9262 99.1138 32.7041 95.44 25.8988C93.018 21.5156 95.273 13.5 102.245 13.5C108.675 13.5 110.302 19.0522 110.512 19.8871C110.72 19.0522 112.349 13.5 118.779 13.5H118.776Z" fill="black"/>
</svg>
